<svg xmlns="http://www.w3.org/2000/svg" version="1.1" xmlns:xlink="http://www.w3.org/1999/xlink" xmlns:svgjs="http://svgjs.dev/svgjs" width="1000" height="1000" viewBox="0 0 1000 1000"><rect width="1000" height="1000" fill="#ffffff"></rect><g transform="matrix(0.7,0,0,0.7,149.57576100013227,444.9914809563038)"><svg viewBox="0 0 396 62" data-background-color="#ffffff" preserveAspectRatio="xMidYMid meet" height="156" width="1000" xmlns="http://www.w3.org/2000/svg" xmlns:xlink="http://www.w3.org/1999/xlink"><defs></defs><g id="tight-bounds" transform="matrix(1,0,0,1,0.23999806278231972,0.23194304678722233)"><svg viewBox="0 0 395.52 61.53611390642556" height="61.53611390642556" width="395.52"><g><svg viewBox="0 0 495.26964500636996 77.05544419879384" height="61.53611390642556" width="395.52"><g transform="matrix(1,0,0,1,0,10.649486137459931)"><svg viewBox="0 0 395.52 55.756471923873974" height="55.756471923873974" width="395.52"><g><svg viewBox="0 0 395.52 55.756471923873974" height="55.756471923873974" width="395.52"><g><svg viewBox="0 0 395.52 30.07237671156629" height="30.07237671156629" width="395.52"><g transform="matrix(1,0,0,1,0,0)"><svg width="395.52" viewBox="1.2699999809265137 -32.90999984741211 438.5899963378906 33.349998474121094" height="30.07237671156629" data-palette-color="#6f5f5a"><path d="M9.28-32.03L9.28-32.03Q10.25-32.03 12.04-32.15 13.82-32.28 14.4-32.32L14.4-32.32Q14.89-30.76 18.41-23.12 21.92-15.48 23.63-11.23L23.63-11.23 23.73-11.23Q23.83-11.23 23.83-11.28L23.83-11.28Q27.59-20.61 29.79-26.66L29.79-26.66 31.4-32.13Q32.28-32.03 35.35-32.03L35.35-32.03Q35.64-32.03 41.5-32.32L41.5-32.32Q41.7-32.03 41.7-31.54L41.7-31.54Q41.7-30.52 41.46-30.52L41.46-30.52 41.41-30.52Q40.19-30.52 39.36-29.93L39.36-29.93Q38.62-29.39 38.67-27.93L38.67-27.93Q38.77-25.98 39.16-17.82 39.55-9.67 39.65-7.42L39.65-7.42Q39.79-4.44 40.38-2.93L40.38-2.93Q40.58-2.49 41.67-2.05 42.77-1.61 43.21-1.61L43.21-1.61Q43.41-1.61 43.41-0.63L43.41-0.63Q43.41-0.1 43.31 0.2L43.31 0.2Q42.77 0.15 40.58-0.02 38.38-0.2 37.11-0.2L37.11-0.2Q35.79-0.2 33.25-0.02 30.71 0.15 30.03 0.2L30.03 0.2Q29.79-0.05 29.79-0.59L29.79-0.59Q29.79-1.61 29.93-1.61L29.93-1.61Q30.47-1.61 31.59-2.05 32.71-2.49 32.96-2.98L32.96-2.98Q33.35-3.71 33.35-4.35L33.35-4.35Q33.35-5.47 33.25-7.23L33.25-7.23 32.86-19.63Q32.67-22.9 32.47-22.9L32.47-22.9Q32.37-22.9 32.23-22.56L32.23-22.56 23.78-1.51Q23.58-1.03 23-0.46 22.41 0.1 21.83 0.1L21.83 0.1Q21.68 0.1 21.39 0L21.39 0 10.64-24.12 9.81-5.32Q9.81-3.91 9.86-3.56L9.86-3.56Q10.01-2.93 12.01-2.27 14.01-1.61 14.65-1.61L14.65-1.61Q14.84-1.61 14.84-0.63L14.84-0.63Q14.84-0.1 14.75 0.2L14.75 0.2Q14.36 0.2 11.82 0 9.28-0.2 8.01-0.2 6.74-0.2 4.49-0.02 2.25 0.15 1.46 0.2L1.46 0.2Q1.27 0 1.27-0.63L1.27-0.63Q1.27-1.56 1.42-1.56L1.42-1.56Q2.29-1.56 4.27-2.29 6.25-3.03 6.35-4.05L6.35-4.05Q6.45-5.18 6.54-6.4L6.54-6.4Q6.69-8.94 6.88-13.89 7.08-18.85 7.23-23.44 7.37-28.03 7.42-28.66L7.42-28.66Q7.42-29.2 7.28-29.54L7.28-29.54Q7.13-29.93 5.71-30.25 4.3-30.57 3.66-30.57L3.66-30.57Q3.47-30.57 3.47-31.59L3.47-31.59Q3.47-32.13 3.66-32.32L3.66-32.32Q4.35-32.28 6.18-32.15 8.01-32.03 9.28-32.03ZM65.48-1.61L65.48-1.61Q66.55-1.61 67.67-2.08 68.8-2.54 68.8-3.32L68.8-3.32Q68.8-3.42 67.58-6.59L67.58-6.59 66.11-10.16Q65.92-10.35 65.77-10.35L65.77-10.35Q64.84-10.4 61.08-10.4L61.08-10.4Q57.86-10.4 56.15-10.35L56.15-10.35Q55.95-10.35 55.81-10.11L55.81-10.11Q55.81-10.11 54.2-6.4L54.2-6.4Q53.22-4.2 53.22-3.42 53.22-2.64 54.1-2.2 54.98-1.76 55.64-1.68 56.3-1.61 56.78-1.61L56.78-1.61Q56.93-1.56 56.93-0.83 56.93-0.1 56.83 0.2L56.83 0.2Q56.2 0.15 54.27-0.02 52.34-0.2 51.12-0.2 49.9-0.2 48.19-0.02 46.48 0.15 45.55 0.2L45.55 0.2Q45.36 0 45.36-0.54L45.36-0.54Q45.36-1.56 45.46-1.56L45.46-1.56Q46.04-1.56 47.41-2.08 48.78-2.59 49.12-3.13L49.12-3.13Q49.51-3.71 49.92-4.57 50.34-5.42 50.58-5.96L50.58-5.96 50.83-6.54 61.62-31.35Q62.16-32.62 63.43-32.62L63.43-32.62Q64.16-32.62 64.6-31.98L64.6-31.98 74.61-7.23Q75.53-4.98 76.22-3.22L76.22-3.22Q76.51-2.44 77.83-2.03 79.15-1.61 79.83-1.61L79.83-1.61Q80.03-1.61 80.03-0.78 80.03 0.05 79.93 0.2L79.93 0.2Q79.73 0.2 76.93 0 74.12-0.2 72.85-0.2L72.85-0.2Q72.51-0.2 65.48 0.2L65.48 0.2Q65.28 0 65.28-0.81 65.28-1.61 65.48-1.61ZM57.47-13.48L57.47-13.48Q58.93-13.33 61.08-13.33L61.08-13.33Q63.03-13.33 64.55-13.43L64.55-13.43 64.69-13.67 61.18-22.41 57.37-13.67Q57.37-13.48 57.47-13.48ZM108.54-14.11L108.54-25.59Q108.54-28.37 107.91-29.1L107.91-29.1Q107.47-29.64 106.07-30.08 104.68-30.52 104.1-30.52L104.1-30.52Q103.9-30.52 103.85-31.32 103.8-32.13 103.95-32.32L103.95-32.32Q108.44-31.93 110.4-31.93L110.4-31.93Q111.62-31.93 113.74-32.1 115.86-32.28 116.45-32.32L116.45-32.32Q116.65-31.93 116.65-31.45L116.65-31.45Q116.65-30.52 116.4-30.52L116.4-30.52Q113.72-30.52 112.35-28.91L112.35-28.91Q111.66-28.08 111.66-25.34L111.66-25.34 111.66-6.79Q111.66-5.03 111.86 0.05L111.86 0.05Q111.66 0.24 110.64 0.24L110.64 0.24Q110.05 0.24 109.13-0.88L109.13-0.88 89.25-25.59 89.25-6.88Q89.25-4.2 89.64-3.42L89.64-3.42Q90.08-2.59 91.69-2.12 93.31-1.66 94.04-1.66L94.04-1.66Q94.18-1.66 94.21-0.83 94.23 0 94.14 0.2L94.14 0.2Q93.7 0.2 91.25 0 88.81-0.2 87.54-0.2 86.27-0.2 84.32-0.02 82.37 0.15 81.49 0.2L81.49 0.2Q81.34 0.05 81.34-0.68L81.34-0.68Q81.34-1.61 81.49-1.61L81.49-1.61Q81.98-1.61 82.61-1.71 83.25-1.81 84.22-2.27 85.2-2.73 85.64-3.47L85.64-3.47Q86.13-4.25 86.13-7.03L86.13-7.03 86.13-26.22Q86.13-28.76 85.4-29.69L85.4-29.69Q85.15-30.03 83.69-30.27 82.22-30.52 81.54-30.52L81.54-30.52Q81.34-30.52 81.29-31.32 81.25-32.13 81.44-32.32L81.44-32.32Q82.22-32.28 84.54-32.1 86.86-31.93 88.13-31.93L88.13-31.93Q89.79-31.93 92.91-32.32L92.91-32.32Q93.75-30.66 96.16-27.51 98.58-24.37 102.39-19.73 106.2-15.09 108.44-12.11L108.44-12.11Q108.54-12.45 108.54-14.11L108.54-14.11ZM138.57-1.61L138.57-1.61Q139.64-1.61 140.76-2.08 141.89-2.54 141.89-3.32L141.89-3.32Q141.89-3.42 140.67-6.59L140.67-6.59 139.2-10.16Q139.01-10.35 138.86-10.35L138.86-10.35Q137.93-10.4 134.17-10.4L134.17-10.4Q130.95-10.4 129.24-10.35L129.24-10.35Q129.05-10.35 128.9-10.11L128.9-10.11Q128.9-10.11 127.29-6.4L127.29-6.4Q126.31-4.2 126.31-3.42 126.31-2.64 127.19-2.2 128.07-1.76 128.73-1.68 129.39-1.61 129.88-1.61L129.88-1.61Q130.02-1.56 130.02-0.83 130.02-0.1 129.92 0.2L129.92 0.2Q129.29 0.15 127.36-0.02 125.43-0.2 124.21-0.2 122.99-0.2 121.28-0.02 119.57 0.15 118.64 0.2L118.64 0.2Q118.45 0 118.45-0.54L118.45-0.54Q118.45-1.56 118.55-1.56L118.55-1.56Q119.13-1.56 120.5-2.08 121.87-2.59 122.21-3.13L122.21-3.13Q122.6-3.71 123.01-4.57 123.43-5.42 123.67-5.96L123.67-5.96 123.92-6.54 134.71-31.35Q135.25-32.62 136.52-32.62L136.52-32.62Q137.25-32.62 137.69-31.98L137.69-31.98 147.7-7.23Q148.63-4.98 149.31-3.22L149.31-3.22Q149.6-2.44 150.92-2.03 152.24-1.61 152.92-1.61L152.92-1.61Q153.12-1.61 153.12-0.78 153.12 0.05 153.02 0.2L153.02 0.2Q152.82 0.2 150.02 0 147.21-0.2 145.94-0.2L145.94-0.2Q145.6-0.2 138.57 0.2L138.57 0.2Q138.37 0 138.37-0.81 138.37-1.61 138.57-1.61ZM130.56-13.48L130.56-13.48Q132.02-13.33 134.17-13.33L134.17-13.33Q136.13-13.33 137.64-13.43L137.64-13.43 137.79-13.67 134.27-22.41 130.46-13.67Q130.46-13.48 130.56-13.48ZM154.29-15.72L154.29-15.72Q154.29-22.61 158.97-27.59 163.66-32.57 170.35-32.57L170.35-32.57Q175.67-32.57 181.53-31.15L181.53-31.15Q181.78-31.1 182.22-27.47 182.66-23.83 182.66-23.14L182.66-23.14Q182.66-22.75 181.78-22.75L181.78-22.75Q180.75-22.75 180.26-23L180.26-23Q180.02-23.93 179.48-24.9 178.95-25.88 177.87-27.1 176.8-28.32 174.89-29.08 172.99-29.83 170.6-29.83L170.6-29.83Q161.81-29.83 161.81-16.85L161.81-16.85Q161.81-13.18 162.76-10.03 163.71-6.88 166.13-4.59 168.54-2.29 172.16-2.29L172.16-2.29Q174.31-2.29 175.28-3.08L175.28-3.08Q175.82-3.52 175.82-4.54L175.82-4.54 175.82-7.62 175.82-7.96Q175.82-10.45 175.48-11.72L175.48-11.72Q175.09-13.04 172.26-13.04L172.26-13.04Q172.06-13.04 172.04-13.84 172.01-14.65 172.21-14.84L172.21-14.84Q173.09-14.79 174.53-14.72 175.97-14.65 177.16-14.6 178.36-14.55 179.48-14.55L179.48-14.55Q180.21-14.55 186.07-14.84L186.07-14.84Q186.22-14.4 186.22-13.87L186.22-13.87Q186.22-12.99 186.03-12.99L186.03-12.99Q184.9-12.99 183.44-12.26L183.44-12.26Q182.66-11.87 182.66-8.4L182.66-8.4 182.66-5.57Q182.66-4.69 182.8-4.25 182.95-3.81 182.95-3.71L182.95-3.71Q182.95-2.88 181.92-2.34L181.92-2.34Q180.12-1.42 179.12-1 178.12-0.59 175.55-0.07 172.99 0.44 169.81 0.44L169.81 0.44Q163.37 0.44 158.83-4.37 154.29-9.18 154.29-15.72ZM196.08-32.18L196.08-32.18Q198.23-32.18 203.65-32.3 209.07-32.42 211.85-32.42L211.85-32.42Q211.9-31.93 213.27-25.2L213.27-25.2Q213.02-24.95 212.15-24.95L212.15-24.95Q211.61-24.95 211.46-25.29L211.46-25.29Q210.53-27.15 208.53-28.47 206.53-29.79 204.63-29.79L204.63-29.79 202.77-29.79Q199.69-29.79 199.6-29.15L199.6-29.15Q199.35-27.98 199.35-25.34L199.35-25.34 199.35-17.82Q199.35-17.53 201.45-17.53L201.45-17.53 204.04-17.53Q207.07-17.53 207.36-17.72L207.36-17.72Q207.6-17.92 207.75-19.14L207.75-19.14Q207.85-19.87 208.04-20.56L208.04-20.56Q208.09-20.9 208.78-20.9L208.78-20.9Q209.61-20.9 209.85-20.65L209.85-20.65 209.85-11.43Q209.66-11.23 208.83-11.23L208.83-11.23Q208.19-11.23 208.04-11.62L208.04-11.62Q207.85-12.3 207.7-12.79 207.56-13.28 207.46-13.53 207.36-13.77 207.24-13.96 207.12-14.16 207.07-14.21 207.02-14.26 206.87-14.33 206.73-14.4 206.68-14.45L206.68-14.45Q206.04-14.84 202.87-14.84L202.87-14.84Q199.35-14.84 199.35-14.4L199.35-14.4 199.35-6.88Q199.35-4.54 199.74-3.42L199.74-3.42Q199.99-2.64 203.06-2.64L203.06-2.64 204.33-2.64Q207.36-2.64 209.8-3.91L209.8-3.91Q210.63-4.35 211.68-5.57 212.73-6.79 213.32-8.3L213.32-8.3Q213.37-8.59 214-8.59L214-8.59Q215.17-8.59 215.47-8.3L215.47-8.3Q213.07-1.56 212.83 0.1L212.83 0.1Q210.34 0.1 204.92 0 199.5-0.1 196.13-0.1L196.13-0.1 189 0.2Q188.81 0 188.81-0.63L188.81-0.63Q188.81-1.61 189-1.61L189-1.61Q189.59-1.61 190.83-1.95 192.08-2.29 192.22-2.69L192.22-2.69Q192.52-3.81 192.52-6.98L192.52-6.98 192.52-25.44Q192.52-28.13 192.22-29.25L192.22-29.25Q192.08-29.64 190.78-30.13 189.49-30.62 188.95-30.62L188.95-30.62Q188.76-30.62 188.76-31.49L188.76-31.49Q188.76-32.28 188.9-32.42L188.9-32.42Q192.81-32.18 196.08-32.18ZM236.16-32.03L236.16-32.03Q237.14-32.03 238.92-32.15 240.71-32.28 241.29-32.32L241.29-32.32Q241.78-30.76 245.3-23.12 248.81-15.48 250.52-11.23L250.52-11.23 250.62-11.23Q250.71-11.23 250.71-11.28L250.71-11.28Q254.47-20.61 256.67-26.66L256.67-26.66 258.28-32.13Q259.16-32.03 262.24-32.03L262.24-32.03Q262.53-32.03 268.39-32.32L268.39-32.32Q268.59-32.03 268.59-31.54L268.59-31.54Q268.59-30.52 268.34-30.52L268.34-30.52 268.29-30.52Q267.07-30.52 266.24-29.93L266.24-29.93Q265.51-29.39 265.56-27.93L265.56-27.93Q265.66-25.98 266.05-17.82 266.44-9.67 266.54-7.42L266.54-7.42Q266.68-4.44 267.27-2.93L267.27-2.93Q267.46-2.49 268.56-2.05 269.66-1.61 270.1-1.61L270.1-1.61Q270.3-1.61 270.3-0.63L270.3-0.63Q270.3-0.1 270.2 0.2L270.2 0.2Q269.66 0.15 267.46-0.02 265.27-0.2 264-0.2L264-0.2Q262.68-0.2 260.14-0.02 257.6 0.15 256.92 0.2L256.92 0.2Q256.67-0.05 256.67-0.59L256.67-0.59Q256.67-1.61 256.82-1.61L256.82-1.61Q257.36-1.61 258.48-2.05 259.6-2.49 259.85-2.98L259.85-2.98Q260.24-3.71 260.24-4.35L260.24-4.35Q260.24-5.47 260.14-7.23L260.14-7.23 259.75-19.63Q259.55-22.9 259.36-22.9L259.36-22.9Q259.26-22.9 259.11-22.56L259.11-22.56 250.67-1.51Q250.47-1.03 249.88-0.46 249.3 0.1 248.71 0.1L248.71 0.1Q248.57 0.1 248.27 0L248.27 0 237.53-24.12 236.7-5.32Q236.7-3.91 236.75-3.56L236.75-3.56Q236.9-2.93 238.9-2.27 240.9-1.61 241.54-1.61L241.54-1.61Q241.73-1.61 241.73-0.63L241.73-0.63Q241.73-0.1 241.63 0.2L241.63 0.2Q241.24 0.2 238.7 0 236.16-0.2 234.89-0.2 233.63-0.2 231.38-0.02 229.13 0.15 228.35 0.2L228.35 0.2Q228.16 0 228.16-0.63L228.16-0.63Q228.16-1.56 228.3-1.56L228.3-1.56Q229.18-1.56 231.16-2.29 233.14-3.03 233.23-4.05L233.23-4.05Q233.33-5.18 233.43-6.4L233.43-6.4Q233.58-8.94 233.77-13.89 233.97-18.85 234.11-23.44 234.26-28.03 234.31-28.66L234.31-28.66Q234.31-29.2 234.16-29.54L234.16-29.54Q234.02-29.93 232.6-30.25 231.18-30.57 230.55-30.57L230.55-30.57Q230.35-30.57 230.35-31.59L230.35-31.59Q230.35-32.13 230.55-32.32L230.55-32.32Q231.23-32.28 233.06-32.15 234.89-32.03 236.16-32.03ZM280.35-32.03L280.35-32.03Q281.47-32.03 287.33-32.32L287.33-32.32Q287.43-32.13 287.41-31.32 287.38-30.52 287.24-30.52L287.24-30.52Q286.5-30.52 285.6-30.25 284.7-29.98 284.65-29.49L284.65-29.49Q284.65-29.1 285.04-28.42L285.04-28.42 289.92-19.78Q290.17-19.53 290.41-19.87L290.41-19.87Q291.83-21.92 293.78-25.29 295.73-28.66 295.73-29.44L295.73-29.44Q295.73-30.52 292.61-30.52L292.61-30.52Q292.41-30.52 292.39-31.32 292.36-32.13 292.56-32.32L292.56-32.32Q296.95-32.03 298.47-32.03L298.47-32.03Q299.74-32.03 303.98-32.32L303.98-32.32Q304.13-31.88 304.13-31.45L304.13-31.45Q304.13-30.57 303.94-30.57L303.94-30.57Q303.06-30.57 301.93-30.13 300.81-29.69 300.13-28.81L300.13-28.81Q298.86-27.1 295.22-21.29 291.58-15.48 291.58-14.84L291.58-14.84 291.58-7.08Q291.58-4.35 291.97-2.83L291.97-2.83Q292.07-2.49 293.31-2.05 294.56-1.61 295-1.61L295-1.61Q295.19-1.61 295.19-0.68L295.19-0.68Q295.19-0.1 295.1 0.2L295.1 0.2Q294.76 0.2 292.17 0 289.58-0.2 288.31-0.2L288.31-0.2Q286.99-0.2 284.45-0.02 281.91 0.15 281.23 0.2L281.23 0.2Q281.03 0 281.03-0.59L281.03-0.59Q281.03-1.61 281.18-1.61L281.18-1.61Q281.72-1.61 282.99-2.03 284.26-2.44 284.4-2.83L284.4-2.83Q284.75-4.15 284.75-6.79L284.75-6.79 284.75-15.09Q284.75-15.43 283.21-18.21 281.67-21 280.16-23.63L280.16-23.63 278.64-26.22Q277.03-29.2 276.01-29.79L276.01-29.79Q274.78-30.52 273.42-30.52L273.42-30.52Q273.22-30.52 273.22-31.32 273.22-32.13 273.42-32.32L273.42-32.32Q274.25-32.28 275.61-32.2 276.98-32.13 278.13-32.08 279.28-32.03 280.35-32.03ZM323.17-32.18L323.17-32.18Q323.17-32.18 331.66-32.18L331.66-32.18Q339.62-32.18 344.12-27.47 348.61-22.75 348.61-16.41L348.61-16.41Q348.61-9.38 344.07-4.61 339.53 0.15 331.62 0.15L331.62 0.15Q330.69 0.15 327.81 0.02 324.93-0.1 323.22-0.1L323.22-0.1 316.09 0.2Q315.89 0 315.89-0.63L315.89-0.63Q315.89-1.61 316.09-1.61L316.09-1.61Q316.67-1.61 317.92-1.95 319.16-2.29 319.31-2.69L319.31-2.69Q319.6-3.81 319.6-6.98L319.6-6.98 319.6-25.44Q319.6-28.13 319.31-29.25L319.31-29.25Q319.16-29.64 317.87-30.13 316.58-30.62 316.04-30.62L316.04-30.62Q315.84-30.62 315.84-31.49L315.84-31.49Q315.84-32.28 315.99-32.42L315.99-32.42Q319.9-32.18 323.17-32.18ZM326.44-25.59L326.44-25.59 326.44-6.64Q326.44-3.47 326.88-3.22L326.88-3.22Q327.95-2.59 332.4-2.59L332.4-2.59Q336.5-2.59 338.74-6.1 340.99-9.62 340.99-16.6L340.99-16.6Q340.99-21.97 338.62-25.71 336.25-29.44 332.06-29.44L332.06-29.44 331.81-29.44Q327.66-29.44 327.07-28.66L327.07-28.66Q326.44-27.78 326.44-25.59ZM358.52-32.18L358.52-32.18Q360.67-32.18 366.09-32.3 371.51-32.42 374.29-32.42L374.29-32.42Q374.34-31.93 375.7-25.2L375.7-25.2Q375.46-24.95 374.58-24.95L374.58-24.95Q374.04-24.95 373.9-25.29L373.9-25.29Q372.97-27.15 370.97-28.47 368.97-29.79 367.06-29.79L367.06-29.79 365.21-29.79Q362.13-29.79 362.03-29.15L362.03-29.15Q361.79-27.98 361.79-25.34L361.79-25.34 361.79-17.82Q361.79-17.53 363.89-17.53L363.89-17.53 366.48-17.53Q369.5-17.53 369.8-17.72L369.8-17.72Q370.04-17.92 370.19-19.14L370.19-19.14Q370.29-19.87 370.48-20.56L370.48-20.56Q370.53-20.9 371.21-20.9L371.21-20.9Q372.04-20.9 372.29-20.65L372.29-20.65 372.29-11.43Q372.09-11.23 371.26-11.23L371.26-11.23Q370.63-11.23 370.48-11.62L370.48-11.62Q370.29-12.3 370.14-12.79 369.99-13.28 369.89-13.53 369.8-13.77 369.67-13.96 369.55-14.16 369.5-14.21 369.45-14.26 369.31-14.33 369.16-14.4 369.11-14.45L369.11-14.45Q368.48-14.84 365.3-14.84L365.3-14.84Q361.79-14.84 361.79-14.4L361.79-14.4 361.79-6.88Q361.79-4.54 362.18-3.42L362.18-3.42Q362.42-2.64 365.5-2.64L365.5-2.64 366.77-2.64Q369.8-2.64 372.24-3.91L372.24-3.91Q373.07-4.35 374.12-5.57 375.17-6.79 375.75-8.3L375.75-8.3Q375.8-8.59 376.44-8.59L376.44-8.59Q377.61-8.59 377.9-8.3L377.9-8.3Q375.51-1.56 375.27 0.1L375.27 0.1Q372.78 0.1 367.36 0 361.94-0.1 358.57-0.1L358.57-0.1 351.44 0.2Q351.24 0 351.24-0.63L351.24-0.63Q351.24-1.61 351.44-1.61L351.44-1.61Q352.02-1.61 353.27-1.95 354.51-2.29 354.66-2.69L354.66-2.69Q354.95-3.81 354.95-6.98L354.95-6.98 354.95-25.44Q354.95-28.13 354.66-29.25L354.66-29.25Q354.51-29.64 353.22-30.13 351.93-30.62 351.39-30.62L351.39-30.62Q351.19-30.62 351.19-31.49L351.19-31.49Q351.19-32.28 351.34-32.42L351.34-32.42Q355.25-32.18 358.52-32.18ZM400.02-8.59L400.02-8.59Q400.02-15.38 394.01-15.38L394.01-15.38Q392.4-15.38 391.52-15.14L391.52-15.14Q390.99-14.94 390.99-14.7L390.99-14.7 390.99-3.71Q390.99-3.27 391.33-3.03L391.33-3.03Q391.82-2.69 394.99-2.69L394.99-2.69Q400.02-2.69 400.02-8.59ZM384.15-6.98L384.15-6.98 384.15-25.44Q384.15-28.13 383.86-29.25L383.86-29.25Q383.71-29.64 382.42-30.13 381.12-30.62 380.59-30.62L380.59-30.62Q380.39-30.62 380.39-31.49L380.39-31.49Q380.39-32.28 380.54-32.42L380.54-32.42Q384.44-32.18 387.71-32.18L387.71-32.18Q389.33-32.18 395.09-32.28L395.09-32.28Q396.89-32.28 398.75-31.81 400.6-31.35 402.34-30.37 404.07-29.39 405.15-27.64 406.22-25.88 406.22-23.58L406.22-23.58Q406.22-21.04 404.76-19.38 403.29-17.72 402.17-17.29L402.17-17.29Q401.78-17.14 401.92-16.99L401.92-16.99Q403.63-16.7 405.49-14.58 407.34-12.45 407.34-9.13L407.34-9.13Q407.34-4.93 403.93-2.42 400.51 0.1 394.94 0L394.94 0 387.76-0.1Q386.3-0.1 384.52-0.02 382.73 0.05 381.66 0.1L381.66 0.1 380.63 0.2Q380.44 0 380.44-0.63L380.44-0.63Q380.44-1.61 380.63-1.61L380.63-1.61Q381.22-1.61 382.47-1.95 383.71-2.29 383.86-2.69L383.86-2.69Q384.15-3.81 384.15-6.98ZM396.31-18.55L396.31-18.55Q397.04-18.95 397.43-19.29 397.82-19.63 398.29-20.73 398.75-21.83 398.75-23.54L398.75-23.54Q398.75-29.59 394.26-29.59L394.26-29.59Q392.11-29.59 391.43-29.39L391.43-29.39Q390.99-29.3 390.99-28.81L390.99-28.81 390.99-24.37 390.99-18.8Q390.99-18.12 393.52-18.12L393.52-18.12Q395.43-18.12 396.31-18.55ZM419.47-32.23Q422.77-32.08 424.82-32.08 426.87-32.08 430.19-32.23 433.51-32.37 435.56-32.37L435.56-32.37Q436.78-32.37 438.93-32.91L438.93-32.91 439.86-24.9Q439.52-24.56 438.44-24.56L438.44-24.56Q438-24.56 437.96-24.8L437.96-24.8Q436.74-29.64 432.73-29.64L432.73-29.64Q428.78-29.64 428.58-28.76L428.58-28.76Q428.19-27.39 428.19-24.41L428.19-24.41 428.19-6.79Q428.19-4.35 428.58-2.83L428.58-2.83Q428.68-2.49 429.92-2.05 431.17-1.61 431.61-1.61L431.61-1.61Q431.8-1.61 431.8-0.68L431.8-0.68Q431.8-0.1 431.71 0.2L431.71 0.2Q431.36 0.2 428.78 0 426.19-0.2 424.92-0.2L424.92-0.2Q423.6-0.2 421.06-0.02 418.52 0.15 417.84 0.2L417.84 0.2Q417.64 0 417.64-0.59L417.64-0.59Q417.64-1.61 417.79-1.61L417.79-1.61Q418.33-1.61 419.6-2.03 420.87-2.44 421.01-2.83L421.01-2.83Q421.35-4.15 421.35-6.59L421.35-6.59 421.35-24.27Q421.35-28.08 420.96-28.76L420.96-28.76Q420.82-29.05 420.7-29.17 420.57-29.3 419.65-29.47 418.72-29.64 416.96-29.64L416.96-29.64Q414.96-29.64 413.69-28.54 412.42-27.44 411.74-24.85L411.74-24.85Q411.69-24.61 411.25-24.61L411.25-24.61Q410.17-24.61 409.83-24.95L409.83-24.95 410.76-32.91Q412.91-32.37 414.13-32.37L414.13-32.37Q416.18-32.37 419.47-32.23Z" opacity="1" transform="matrix(1,0,0,1,0,0)" fill="#6f5f5a" class="undefined-text-0" data-fill-palette-color="primary" id="text-0"></path></svg></g></svg></g><g transform="matrix(1,0,0,1,211.19774530173748,37.17174311612601)"><svg viewBox="0 0 184.3222546982625 18.584728807747965" height="18.584728807747965" width="184.3222546982625"><g transform="matrix(1,0,0,1,0,0)"><svg width="184.3222546982625" viewBox="2.299999952316284 -35.45000076293945 356.510009765625 35.95000076293945" height="18.584728807747965" data-palette-color="#f36527"><path d="M6.85 0.1L6.85 0.1Q2.3 0.1 2.3-0.9L2.3-0.9 2.3-33.3Q2.3-35 3.85-35L3.85-35 12.65-35Q20.05-35 23.33-31.95 26.6-28.9 26.6-23.1L26.6-23.1Q26.6-18.3 23.5-14.3L23.5-14.3Q21.95-12.3 18.95-11.1 15.95-9.9 11.95-9.9L11.95-9.9 11.95-0.95Q11.95-0.35 10.08-0.13 8.2 0.1 6.85 0.1ZM13-26.3L11.95-26.3 11.95-18.4 12.6-18.4Q14.35-18.4 15.55-19.5 16.75-20.6 16.75-22.6 16.75-24.6 15.93-25.45 15.1-26.3 13-26.3L13-26.3ZM48.65-1.35L48.65-1.35Q45.5 0.5 40.55 0.5 35.6 0.5 32.2-2.88 28.8-6.25 28.8-12.23 28.8-18.2 32.07-21.85 35.35-25.5 40.35-25.5 45.35-25.5 48.07-22.95 50.8-20.4 50.8-16.75L50.8-16.75Q50.8-8.65 41.5-8.65L41.5-8.65 38.05-8.65Q38.05-7.15 38.87-6.58 39.7-6 41.3-6L41.3-6Q44.8-6 47.95-7.6L47.95-7.6Q48-7.65 48.4-6.9L48.4-6.9Q49.6-4.75 49.6-3.28 49.6-1.8 48.65-1.35ZM42.4-15.8L42.4-15.8Q42.4-17.9 40.35-17.9L40.35-17.9Q39.4-17.9 38.72-17.32 38.05-16.75 38.05-15.65L38.05-15.65 38.05-14.1 40.75-14.1Q42.4-14.1 42.4-15.8ZM65-14L65-0.05Q65 0.3 60.45 0.3L60.45 0.3Q55.9 0.2 55.9-0.1L55.9-0.1 55.9-16.7 54.55-16.7Q53.75-16.7 53.27-17.68 52.8-18.65 52.8-20.1L52.8-20.1Q52.8-25.5 56-25.5L56-25.5Q58.25-25.5 59.75-24.13 61.25-22.75 61.25-21L61.25-21Q62.3-23.05 64.07-24.28 65.84-25.5 67.7-25.5L67.7-25.5Q70.59-25.5 71.2-24L71.2-24Q71.34-23.6 71.34-22.83 71.34-22.05 70.87-20.05 70.4-18.05 69.9-17.15 69.4-16.25 69.3-16.25 69.2-16.25 68.37-16.63 67.55-17 66.9-17L66.9-17Q65-17 65-14L65-14ZM74.89-9L74.89-9Q78.94-6.55 81.29-6.55L81.29-6.55Q82.79-6.55 82.79-7.6L82.79-7.6Q82.79-8.35 80.19-9.55L80.19-9.55Q73.94-12.1 73.94-17.9L73.94-17.9Q73.94-21.6 76.64-23.55 79.34-25.5 83.12-25.5 86.89-25.5 89.52-24.7 92.14-23.9 92.14-22.6L92.14-22.6Q92.14-21.5 91.07-19.7 89.99-17.9 89.59-17.75L89.59-17.75Q87.44-18.95 84.94-18.95L84.94-18.95Q83.59-18.95 83.59-18L83.59-18Q83.59-17.4 84.12-16.98 84.64-16.55 86.04-15.93 87.44-15.3 88.37-14.8 89.29-14.3 90.44-13.4L90.44-13.4Q92.84-11.5 92.84-8.45L92.84-8.45Q92.84-4.45 90.19-1.98 87.54 0.5 82.19 0.5L82.19 0.5Q78.64 0.5 75.74-0.7 72.84-1.9 72.84-4L72.84-4Q72.84-5.4 73.52-6.95 74.19-8.5 74.89-9ZM98.52-2.95Q95.39-6.4 95.39-12.5 95.39-18.6 98.52-22.05 101.64-25.5 106.94-25.5 112.24-25.5 115.34-22.05 118.44-18.6 118.44-12.5 118.44-6.4 115.34-2.95 112.24 0.5 106.94 0.5 101.64 0.5 98.52-2.95ZM106.97-17.15Q104.14-17.15 104.14-12.55 104.14-7.95 106.97-7.95 109.79-7.95 109.79-12.55 109.79-17.15 106.97-17.15ZM132.44-16.35L132.44-0.3Q132.44 0.05 128.84 0.05L128.84 0.05Q123.84-0.1 123.84-0.5L123.84-0.5 123.84-16.7 122.54-16.7Q121.24-16.7 120.84-18.9L120.84-18.9Q120.74-19.55 120.74-20.2L120.74-20.2Q120.74-21.75 121.34-23.3L121.34-23.3Q122.24-25.5 124.14-25.5 126.04-25.5 127.54-24.6 129.04-23.7 129.54-22.8L129.54-22.8Q132.69-25.5 137.04-25.5 141.39-25.5 143.34-23.15 145.29-20.8 145.29-15.45L145.29-15.45 145.29-0.45Q145.29 0.15 141.01 0.15 136.74 0.15 136.74-0.45L136.74-0.45 136.74-14.9Q136.74-17.4 134.99-17.4L134.99-17.4Q134.49-17.4 133.59-16.98 132.69-16.55 132.44-16.35L132.44-16.35ZM152.69-18.15L152.69-18.15Q151.29-20.65 151.29-22.23 151.29-23.8 152.14-24.25L152.14-24.25Q154.99-25.5 159.96-25.5 164.94-25.5 166.99-23.18 169.04-20.85 169.04-16.3L169.04-16.3 169.04-8.4 170.74-8.4Q171.59-8.4 172.06-7.4 172.54-6.4 172.54-4.65 172.54-2.9 171.66-1.2 170.79 0.5 169.29 0.5L169.29 0.5Q166.59 0.5 164.94-0.95L164.94-0.95Q164.19-1.55 163.79-2.4L163.79-2.4Q161.49 0.5 156.64 0.5L156.64 0.5Q152.99 0.5 150.49-2.1 147.99-4.7 147.99-8.25L147.99-8.25Q147.99-16.4 157.74-16.4L157.74-16.4 160.49-16.4 160.49-16.9Q160.49-18.2 160.06-18.57 159.64-18.95 158.09-18.95L158.09-18.95Q156.19-18.95 152.69-18.15ZM156.69-8.95L156.69-8.95Q156.69-7.85 157.29-7.28 157.89-6.7 158.81-6.7 159.74-6.7 160.49-7.45L160.49-7.45 160.49-11.3 159.09-11.3Q156.69-11.3 156.69-8.95ZM184.48-34.65L184.48-0.4Q184.48 0.05 179.38 0.05L179.38 0.05Q175.38 0 175.38-0.35L175.38-0.35 175.38-34.4Q175.38-35.15 180.23-35.15L180.23-35.15Q184.48-35 184.48-34.65L184.48-34.65ZM199.68-35L217.33-35Q218.18-35 218.18-30.58 218.18-26.15 217.33-26.15L217.33-26.15 208.18-26.15 208.18-20.45 214.28-20.45Q215.13-20.45 215.13-16.57 215.13-12.7 214.33-12.7L214.33-12.7 208.18-12.7 208.18-0.65Q208.18 0.05 206.3 0.28 204.43 0.5 203.18 0.5L203.18 0.5 200.83 0.4Q198.38 0.1 198.38-0.6L198.38-0.6 198.38-33.7Q198.38-34.5 198.7-34.75 199.03-35 199.68-35L199.68-35ZM231.13-24.85L231.13-0.3Q231.13 0.1 226.55 0.1 221.98 0.1 221.98-0.25L221.98-0.25 221.98-24.8Q221.98-25.15 226.55-25.15 231.13-25.15 231.13-24.85L231.13-24.85ZM231.13-35.15L231.13-27.8Q231.13-27.45 226.55-27.45 221.98-27.45 221.98-27.75L221.98-27.75 221.98-34.95Q221.98-35.45 226.55-35.45 231.13-35.45 231.13-35.15L231.13-35.15ZM246.07-16.35L246.07-0.3Q246.07 0.05 242.47 0.05L242.47 0.05Q237.47-0.1 237.47-0.5L237.47-0.5 237.47-16.7 236.17-16.7Q234.87-16.7 234.47-18.9L234.47-18.9Q234.37-19.55 234.37-20.2L234.37-20.2Q234.37-21.75 234.97-23.3L234.97-23.3Q235.87-25.5 237.77-25.5 239.67-25.5 241.17-24.6 242.67-23.7 243.17-22.8L243.17-22.8Q246.32-25.5 250.67-25.5 255.02-25.5 256.97-23.15 258.92-20.8 258.92-15.45L258.92-15.45 258.92-0.45Q258.92 0.15 254.65 0.15 250.37 0.15 250.37-0.45L250.37-0.45 250.37-14.9Q250.37-17.4 248.62-17.4L248.62-17.4Q248.12-17.4 247.22-16.98 246.32-16.55 246.07-16.35L246.07-16.35ZM266.32-18.15L266.32-18.15Q264.92-20.65 264.92-22.23 264.92-23.8 265.77-24.25L265.77-24.25Q268.62-25.5 273.6-25.5 278.57-25.5 280.62-23.18 282.67-20.85 282.67-16.3L282.67-16.3 282.67-8.4 284.37-8.4Q285.22-8.4 285.69-7.4 286.17-6.4 286.17-4.65 286.17-2.9 285.3-1.2 284.42 0.5 282.92 0.5L282.92 0.5Q280.22 0.5 278.57-0.95L278.57-0.95Q277.82-1.55 277.42-2.4L277.42-2.4Q275.12 0.5 270.27 0.5L270.27 0.5Q266.62 0.5 264.12-2.1 261.62-4.7 261.62-8.25L261.62-8.25Q261.62-16.4 271.37-16.4L271.37-16.4 274.12-16.4 274.12-16.9Q274.12-18.2 273.69-18.57 273.27-18.95 271.72-18.95L271.72-18.95Q269.82-18.95 266.32-18.15ZM270.32-8.95L270.32-8.95Q270.32-7.85 270.92-7.28 271.52-6.7 272.44-6.7 273.37-6.7 274.12-7.45L274.12-7.45 274.12-11.3 272.72-11.3Q270.32-11.3 270.32-8.95ZM299.47-16.35L299.47-0.3Q299.47 0.05 295.87 0.05L295.87 0.05Q290.87-0.1 290.87-0.5L290.87-0.5 290.87-16.7 289.57-16.7Q288.27-16.7 287.87-18.9L287.87-18.9Q287.77-19.55 287.77-20.2L287.77-20.2Q287.77-21.75 288.37-23.3L288.37-23.3Q289.27-25.5 291.17-25.5 293.07-25.5 294.57-24.6 296.07-23.7 296.57-22.8L296.57-22.8Q299.72-25.5 304.07-25.5 308.42-25.5 310.37-23.15 312.32-20.8 312.32-15.45L312.32-15.45 312.32-0.45Q312.32 0.15 308.04 0.15 303.77 0.15 303.77-0.45L303.77-0.45 303.77-14.9Q303.77-17.4 302.02-17.4L302.02-17.4Q301.52-17.4 300.62-16.98 299.72-16.55 299.47-16.35L299.47-16.35ZM324.77-12.4L324.77-12.4Q324.77-7.5 328.47-7.5L328.47-7.5Q330.87-7.5 332.47-8.45L332.47-8.45Q333.22-8.45 333.69-5.88 334.17-3.3 334.17-2.38 334.17-1.45 333.92-1.15L333.92-1.15Q331.27 0.5 326.67 0.5 322.07 0.5 318.84-2.93 315.62-6.35 315.62-12.28 315.62-18.2 318.79-21.85 321.97-25.5 327.24-25.5 332.52-25.5 334.57-22.95L334.57-22.95Q335.02-22.4 335.02-21.33 335.02-20.25 334.62-18.7L334.62-18.7Q333.72-15.5 332.27-15L332.27-15Q332.07-14.95 331.69-14.95 331.32-14.95 330.77-15.55L330.77-15.55Q328.82-17.5 327.64-17.5 326.47-17.5 325.62-16.3 324.77-15.1 324.77-12.4ZM356.66-1.35L356.66-1.35Q353.51 0.5 348.56 0.5 343.61 0.5 340.21-2.88 336.81-6.25 336.81-12.23 336.81-18.2 340.09-21.85 343.36-25.5 348.36-25.5 353.36-25.5 356.09-22.95 358.81-20.4 358.81-16.75L358.81-16.75Q358.81-8.65 349.51-8.65L349.51-8.65 346.06-8.65Q346.06-7.15 346.89-6.58 347.71-6 349.31-6L349.31-6Q352.81-6 355.96-7.6L355.96-7.6Q356.01-7.65 356.41-6.9L356.41-6.9Q357.61-4.75 357.61-3.28 357.61-1.8 356.66-1.35ZM350.41-15.8L350.41-15.8Q350.41-17.9 348.36-17.9L348.36-17.9Q347.41-17.9 346.74-17.32 346.06-16.75 346.06-15.65L346.06-15.65 346.06-14.1 348.76-14.1Q350.41-14.1 350.41-15.8Z" opacity="1" transform="matrix(1,0,0,1,0,0)" fill="#f36527" class="undefined-text-1" data-fill-palette-color="secondary" id="text-1"></path></svg></g></svg></g></svg></g></svg></g><g transform="matrix(1,0,0,1,402.6193664045597,0)"><svg viewBox="0 0 92.65027860181024 77.05544419879384" height="77.05544419879384" width="92.65027860181024"><g><svg xmlns="http://www.w3.org/2000/svg" xmlns:xlink="http://www.w3.org/1999/xlink" version="1.1" x="0" y="0" viewBox="5.8420000076293945 19.680999755859375 88.43899536132812 73.5530014038086" enable-background="new 0 0 100 100" xml:space="preserve" height="77.05544419879384" width="92.65027860181024" class="icon-icon-0" data-fill-palette-color="accent" id="icon-0"><g fill="#f36527" data-fill-palette-color="accent"><path d="M94.281 84.625c0 4.797-4.06 8.609-8.856 8.609H67.589 5.842V65.437v-7.503l14.022-35.302 8.241-2.951h1.353l7.258 2.951L63.285 75.4c1.845 3.567 2.705 4.306 6.026 4.306h2.829l-1.106 3.936h-2.092c-4.797 0-6.765-0.861-9.594-6.272l-25.83-50.308-4.797-2.092-5.535 2.092-9.84 24.108 8.117-3.444 8.61 5.658 9.472-2.092 15.989 31.366c2.338 4.551 5.289 6.642 12.178 6.642h1.229 16.482c2.706 0 4.797-2.091 4.797-4.674s-2.091-4.674-4.797-4.674c-2.583 0-4.674 2.091-4.674 4.674h-3.937c0-4.797 3.813-8.733 8.61-8.733h0.123c-0.615-1.845-2.337-3.321-4.428-3.321-2.583 0-4.675 2.092-4.675 4.552h-4.059c0-4.675 3.937-8.61 8.733-8.61 4.674 0 8.364 3.198 8.486 8.487C92.312 78.475 94.281 81.304 94.281 84.625zM70.911 71.833h0.614l1.23-3.937h-1.6c-0.983 0-1.353-0.123-1.845-1.106l-6.888-13.776-5.781-5.658H54.92l10.578 21.156C67.097 71.464 67.835 71.833 70.911 71.833z" fill="#f36527" data-fill-palette-color="accent"></path></g></svg></g></svg></g></svg></g></svg><rect width="395.52" height="61.53611390642556" fill="none" stroke="none" visibility="hidden"></rect></g></svg></g></svg>